<?xml version="1.0" standalone="no"?>
<!DOCTYPE svg PUBLIC "-//W3C//DTD SVG 20010904//EN"
 "http://www.w3.org/TR/2001/REC-SVG-20010904/DTD/svg10.dtd">
<svg version="1.0" xmlns="http://www.w3.org/2000/svg"
 width="127.000000pt" height="127.000000pt" viewBox="0 0 127.000000 127.000000"
 preserveAspectRatio="xMidYMid meet">
<metadata>
Created by potrace 1.13, written by Peter Selinger 2001-2015
</metadata>
<g transform="translate(0.000000,127.000000) scale(0.100000,-0.100000)"
fill="#000000" stroke="none">
<path d="M545 1133 c-100 -30 -171 -102 -197 -196 -11 -42 -15 -46 -56 -57
-84 -21 -142 -72 -190 -166 -29 -56 -26 -180 5 -239 53 -100 143 -156 266
-163 l78 -5 -3 34 -3 34 -67 7 c-84 8 -129 29 -178 85 -43 50 -55 89 -48 162
8 81 83 166 161 182 23 5 52 11 64 14 16 4 23 15 28 46 11 64 30 101 72 140
84 79 199 85 296 15 37 -27 63 -73 78 -141 7 -31 17 -58 23 -60 6 -1 37 -7 69
-13 63 -12 105 -40 147 -99 21 -30 25 -46 25 -113 0 -77 -1 -79 -41 -126 -57
-68 -102 -88 -201 -93 l-83 -3 0 -35 0 -35 93 4 c106 4 161 26 221 86 63 62
80 105 80 202 1 69 -3 93 -21 127 -43 79 -125 143 -203 157 -32 5 -37 11 -48
51 -26 99 -103 174 -206 201 -64 17 -98 17 -161 -3z"/>
<path d="M482 598 l-132 -163 65 -3 65 -3 0 -154 c0 -85 3 -155 8 -155 4 1 33
34 65 75 32 41 62 75 67 75 5 0 35 -34 67 -75 32 -41 61 -74 66 -75 4 0 7 70
7 155 l0 154 65 3 64 3 -128 160 c-71 87 -133 161 -138 162 -6 2 -69 -70 -141
-159z m202 -17 c31 -39 56 -72 56 -75 0 -4 -11 -6 -25 -6 -25 0 -25 0 -25 -97
l0 -96 -35 39 -35 39 -35 -40 -35 -40 0 98 c0 97 0 97 -25 97 -14 0 -25 2 -25
6 0 9 112 144 120 144 4 0 33 -31 64 -69z"/>
</g>
</svg>
